<svg width="414" height="113" viewBox="0 0 414 113" fill="none" xmlns="http://www.w3.org/2000/svg">
<path opacity="0.6" d="M29.909 65.0688H29.796H0.35199C0.35699 65.2128 0.360988 65.3578 0.368988 65.5018C0.380988 65.7798 0.400988 66.0569 0.417988 66.3349C0.425988 66.4539 0.430987 66.5728 0.439987 66.6908C0.462987 67.0128 0.490989 67.3328 0.519989 67.6528C0.526989 67.7258 0.532989 67.7978 0.539989 67.8678C0.573989 68.2238 0.612987 68.5798 0.654987 68.9328C0.656987 68.9678 0.660989 69.0018 0.665989 69.0358C0.711989 69.4178 0.76099 69.7998 0.81699 70.1798C0.81699 70.1838 0.817988 70.1898 0.819988 70.1938C1.15899 72.5498 1.66799 74.8838 2.34699 77.1778C2.34999 77.1878 2.35399 77.1968 2.35599 77.2068C2.46199 77.5678 2.57399 77.9268 2.68899 78.2838C2.69599 78.3048 2.70299 78.3258 2.70899 78.3468C2.71499 78.3678 2.72199 78.3889 2.72899 78.4099C2.83399 78.7329 2.94399 79.0549 3.05399 79.3779C3.08299 79.4589 3.10999 79.5408 3.13999 79.6218C3.23899 79.9008 3.33999 80.1798 3.44399 80.4588C3.49199 80.5848 3.53999 80.7099 3.58699 80.8369C3.67699 81.0679 3.76599 81.2968 3.85699 81.5278C3.92599 81.7008 3.99799 81.8738 4.06999 82.0468C4.14399 82.2268 4.21999 82.4059 4.29599 82.5869C4.38999 82.8069 4.48799 83.0258 4.58499 83.2448C4.64299 83.3758 4.70199 83.5058 4.75999 83.6358C4.87999 83.8988 5.00399 84.1619 5.12799 84.4229C5.16899 84.5069 5.20799 84.5909 5.24999 84.6749C5.39499 84.9759 5.54299 85.2739 5.69299 85.5699C5.71799 85.6159 5.73999 85.6608 5.76299 85.7068C5.93199 86.0348 6.10399 86.3629 6.28099 86.6879C6.28899 86.7019 6.29699 86.7158 6.30399 86.7318C6.34099 86.7998 6.38199 86.8649 6.41899 86.9319L31.662 71.7249L31.755 71.6689C30.759 69.5699 30.139 67.3378 29.909 65.0688Z" fill="white"/>
<path opacity="0.9" d="M37.173 78.6382L37.102 78.7092L16.283 99.5292C16.39 99.6292 16.496 99.7302 16.606 99.8272C16.8 100.003 16.998 100.178 17.195 100.35C17.297 100.441 17.397 100.531 17.499 100.619C17.735 100.823 17.973 101.022 18.21 101.221C18.275 101.275 18.338 101.328 18.402 101.381C18.669 101.602 18.941 101.819 19.214 102.035C19.249 102.062 19.284 102.09 19.319 102.118C19.614 102.35 19.912 102.576 20.213 102.804C20.226 102.812 20.237 102.82 20.247 102.829C21.501 103.766 22.801 104.644 24.142 105.462C24.188 105.491 24.234 105.518 24.281 105.547C24.536 105.7 24.791 105.851 25.048 106C25.205 106.09 25.362 106.179 25.519 106.268C25.667 106.354 25.815 106.436 25.965 106.519C26.235 106.667 26.507 106.814 26.779 106.958C26.816 106.978 26.854 106.998 26.892 107.018C27.649 107.414 28.419 107.782 29.195 108.136L29.934 106.342L40.405 80.9132L40.444 80.8192C39.3 80.2072 38.204 79.4822 37.173 78.6382Z" fill="white"/>
<path opacity="0.75" d="M35.005 76.5639C34.78 76.3139 34.566 76.0579 34.356 75.7989C34.17 75.5689 33.99 75.3369 33.816 75.1019C33.617 74.8319 33.422 74.5609 33.238 74.2839C33.052 74.0059 32.87 73.7259 32.698 73.4409L7.423 88.6669C7.811 89.3119 8.21601 89.9399 8.62901 90.5609C8.64301 90.5819 8.656 90.6049 8.67 90.6259C8.675 90.6339 8.68001 90.6409 8.68501 90.6489C8.69901 90.6689 8.711 90.6909 8.725 90.7119C8.726 90.7139 8.728 90.7159 8.729 90.7179C8.762 90.7679 8.79601 90.8159 8.83001 90.8659C8.83201 90.8689 8.834 90.8719 8.836 90.8749L8.839 90.8789C9.278 91.5279 9.729 92.1669 10.194 92.7889C10.204 92.8019 10.215 92.8159 10.225 92.8289C10.235 92.8419 10.245 92.8549 10.255 92.8679C10.457 93.1359 10.66 93.4029 10.869 93.6679C10.896 93.7029 10.923 93.7369 10.952 93.7709C11.166 94.0449 11.384 94.3149 11.606 94.5829C11.658 94.6459 11.712 94.7099 11.764 94.7739C11.964 95.0129 12.164 95.2509 12.368 95.4869C12.455 95.5879 12.546 95.6889 12.634 95.7889C12.808 95.9869 12.98 96.1839 13.158 96.3789C13.255 96.4859 13.356 96.5939 13.455 96.7009C13.5 96.7499 13.544 96.7979 13.59 96.8469C13.72 96.9869 13.849 97.1269 13.98 97.2659C14.032 97.3209 14.087 97.3749 14.14 97.4299C14.37 97.6699 14.602 97.9099 14.839 98.1459L35.689 77.2959C35.45 77.0569 35.226 76.8109 35.005 76.5639Z" fill="white"/>
<path opacity="0.9" d="M62.642 78.627C62.413 78.812 62.181 78.993 61.945 79.167L61.997 79.254L77.199 104.489C77.903 104.029 78.599 103.555 79.279 103.057C80.75 101.972 82.174 100.796 83.546 99.53L62.725 78.709L62.642 78.627Z" fill="white"/>
<path d="M75.278 105.691C75.289 105.685 75.301 105.678 75.312 105.672L75.311 105.671C75.3 105.677 75.289 105.684 75.278 105.691Z" fill="#939598"/>
<path d="M75.264 105.7V105.699H75.263L75.264 105.7Z" fill="#939598"/>
<path d="M75.311 105.671L75.312 105.672C75.378 105.635 75.445 105.6 75.511 105.561L75.507 105.554C75.441 105.593 75.376 105.632 75.311 105.671Z" fill="#939598"/>
<path d="M75.269 105.695L75.278 105.691V105.69L75.269 105.695Z" fill="#939598"/>
<path d="M75.263 105.699H75.264L75.227 105.636L75.263 105.699Z" fill="#939598"/>
<path d="M75.278 105.691C75.29 105.685 75.301 105.679 75.312 105.673C75.301 105.678 75.289 105.684 75.278 105.691Z" fill="#939598"/>
<path d="M75.25 105.707L75.259 105.702L75.25 105.707Z" fill="#939598"/>
<path d="M75.263 105.699L75.259 105.702L75.264 105.7L75.263 105.699Z" fill="#939598"/>
<path d="M75.269 105.695C75.267 105.696 75.265 105.697 75.263 105.698C75.268 105.695 75.273 105.693 75.278 105.69V105.689C75.275 105.692 75.272 105.694 75.269 105.695Z" fill="#939598"/>
<path d="M75.312 105.672C75.378 105.633 75.445 105.6 75.51 105.56C75.445 105.6 75.378 105.635 75.312 105.672Z" fill="#939598"/>
<path d="M75.511 105.56L75.507 105.554H75.506L75.511 105.56Z" fill="#939598"/>
<path d="M75.242 105.712L75.243 105.711H75.244L75.242 105.712Z" fill="#939598"/>
<path d="M75.25 105.707L75.244 105.711L75.25 105.707Z" fill="#939598"/>
<path opacity="0.6" d="M74.99 104.696L74.474 103.84L60.284 80.2852C59.997 80.4582 59.703 80.6142 59.41 80.7722C59.114 80.9312 58.816 81.0802 58.514 81.2232C55.788 82.5162 52.837 83.1761 49.882 83.1761C47.946 83.1761 46.011 82.8962 44.14 82.3382C43.821 82.2432 43.51 82.1181 43.195 82.0061C42.88 81.8951 42.561 81.7992 42.251 81.6712L31.787 107.083L31.377 108.079L31.026 108.932L31.024 108.936C31.051 108.947 31.079 108.956 31.106 108.967C31.135 108.979 31.163 108.988 31.192 109C31.193 109 31.195 109.001 31.195 109.001C31.202 109.004 31.209 109.006 31.215 109.009C31.462 109.11 31.711 109.197 31.959 109.294C32.27 109.415 32.581 109.538 32.893 109.652C33.052 109.71 33.21 109.778 33.369 109.834C36.647 110.992 40.04 111.802 43.489 112.256C43.624 112.272 43.758 112.291 43.893 112.31C44.034 112.326 44.176 112.34 44.317 112.356C44.583 112.386 44.848 112.417 45.115 112.443C45.181 112.448 45.247 112.454 45.313 112.46C45.64 112.491 45.967 112.519 46.292 112.542C46.403 112.55 46.515 112.555 46.625 112.563C46.912 112.582 47.197 112.6 47.483 112.613C47.658 112.623 47.833 112.628 48.009 112.634C48.236 112.642 48.462 112.651 48.691 112.658C49.018 112.666 49.348 112.669 49.677 112.67C49.755 112.67 49.832 112.672 49.909 112.673C52.664 112.673 55.418 112.444 58.142 111.987C58.188 111.98 58.233 111.972 58.28 111.966C58.568 111.916 58.856 111.862 59.144 111.809C59.308 111.777 59.473 111.746 59.635 111.714C59.803 111.679 59.972 111.644 60.14 111.608C60.421 111.549 60.701 111.488 60.982 111.423C61.032 111.412 61.083 111.402 61.134 111.388C65.275 110.423 69.274 108.929 73.031 106.952L73.032 106.951C73.278 106.821 73.518 106.673 73.763 106.54C74.055 106.38 74.345 106.215 74.635 106.049C74.836 105.934 75.039 105.828 75.238 105.709L75.239 105.708C75.241 105.707 75.243 105.705 75.245 105.704C75.248 105.702 75.252 105.701 75.255 105.699C75.257 105.698 75.258 105.697 75.259 105.696C75.261 105.695 75.263 105.694 75.265 105.693C75.268 105.691 75.271 105.69 75.274 105.688C75.285 105.681 75.296 105.675 75.307 105.668C75.372 105.629 75.437 105.59 75.502 105.551L74.99 104.696Z" fill="white"/>
<path opacity="0.6" d="M37.185 47.5119C37.415 47.3259 37.647 47.1459 37.882 46.9719L37.83 46.8849L22.629 21.6499C21.923 22.1109 21.225 22.5859 20.544 23.0859C19.074 24.1679 17.651 25.3429 16.282 26.6079L37.103 47.4289L37.185 47.5119Z" fill="white"/>
<path opacity="0.9" d="M14.838 27.9941C14.601 28.2311 14.377 28.4761 14.146 28.7161C13.915 28.9561 13.68 29.1951 13.454 29.4391C11.916 31.1041 10.51 32.8481 9.24199 34.6591C9.18099 34.7441 9.11999 34.8331 9.05999 34.9201C8.91699 35.1281 8.77599 35.3361 8.63699 35.5451C8.49199 35.7621 8.34798 35.9821 8.20798 36.2011C8.15498 36.2811 8.10298 36.3621 8.05198 36.4421C3.26298 43.9551 0.696986 52.4761 0.351986 61.0691C0.338986 61.4021 0.331986 61.7361 0.324986 62.0691C0.317986 62.4021 0.307983 62.7361 0.307983 63.0691H29.796C29.796 62.7351 29.827 62.4031 29.844 62.0691C29.861 61.7351 29.866 61.4011 29.899 61.0691C30.28 57.2291 31.762 53.4801 34.346 50.3301C34.556 50.0741 34.793 49.8341 35.018 49.5871C35.242 49.3401 35.45 49.0831 35.689 48.8451L14.838 27.9941Z" fill="white"/>
<path opacity="0.9" d="M75.681 20.6748C75.641 20.6498 75.599 20.6258 75.559 20.6018C75.3 20.4428 75.038 20.2898 74.776 20.1368C74.624 20.0488 74.472 19.9638 74.319 19.8768C74.165 19.7908 74.013 19.7048 73.858 19.6208C73.592 19.4748 73.325 19.3308 73.057 19.1888C73.015 19.1678 72.974 19.1448 72.931 19.1228C71.202 18.2188 69.426 17.4228 67.613 16.7318C67.567 16.7128 67.519 16.6948 67.472 16.6778C67.077 16.5298 66.681 16.3828 66.282 16.2448C63.061 15.1198 59.73 14.3308 56.346 13.8868C56.208 13.8678 56.069 13.8488 55.931 13.8308C55.792 13.8138 55.654 13.7998 55.516 13.7848C55.249 13.7538 54.983 13.7238 54.715 13.6978C54.641 13.6908 54.566 13.6858 54.491 13.6778C54.174 13.6488 53.855 13.6208 53.538 13.5978C53.415 13.5888 53.29 13.5818 53.167 13.5748C52.895 13.5568 52.62 13.5378 52.348 13.5258C52.202 13.5178 52.058 13.5138 51.914 13.5088L51.913 42.9528V43.0678C53.43 43.2248 54.933 43.5478 56.391 44.0428L78.145 22.2888C77.338 21.7288 76.521 21.1848 75.681 20.6748Z" fill="white"/>
<path d="M24.837 21.4409L24.321 20.585L24.837 21.4409Z" fill="#6D6E71"/>
<path d="M24.318 20.5791L24.321 20.5851L24.318 20.5791Z" fill="#6D6E71"/>
<path opacity="0.75" d="M48.914 13.4848C48.581 13.4918 48.247 13.4928 47.914 13.5058C45.828 13.5898 43.746 13.8028 41.681 14.1488C41.636 14.1568 41.591 14.1638 41.545 14.1718C41.255 14.2218 40.968 14.2748 40.68 14.3288C40.517 14.3598 40.353 14.3899 40.19 14.4229C40.02 14.4569 39.851 14.4919 39.682 14.5289C39.402 14.5869 39.122 14.6478 38.842 14.7128C38.791 14.7238 38.741 14.7358 38.689 14.7468C34.548 15.7128 30.547 17.2078 26.791 19.1848C26.546 19.3148 26.306 19.4618 26.062 19.5958C25.77 19.7558 25.48 19.9209 25.19 20.0869C24.975 20.2109 24.756 20.3249 24.542 20.4529C24.54 20.4539 24.537 20.4558 24.535 20.4568H24.534C24.519 20.4658 24.504 20.4738 24.489 20.4828C24.433 20.5168 24.375 20.5448 24.319 20.5788L24.322 20.5838L24.838 21.4408L39.543 45.8528C39.83 45.6798 40.124 45.5228 40.417 45.3658C40.712 45.2068 41.011 45.0578 41.312 44.9148C43.412 43.9148 45.644 43.2948 47.913 43.0648C48.246 43.0308 48.579 43.0028 48.913 42.9858C49.246 42.9688 49.579 42.9518 49.913 42.9518L49.914 13.4648C49.58 13.4648 49.247 13.4788 48.914 13.4848Z" fill="white"/>
<path opacity="0.9" d="M99.458 60.631C99.444 60.366 99.428 60.102 99.41 59.836C99.402 59.704 99.395 59.573 99.384 59.439C99.362 59.128 99.336 58.816 99.307 58.505C99.301 58.424 99.293 58.344 99.286 58.263C99.252 57.915 99.215 57.567 99.175 57.22C99.171 57.192 99.168 57.164 99.165 57.136C99.163 57.123 99.162 57.109 99.16 57.096C99.114 56.721 99.064 56.346 99.011 55.972C99.01 55.961 99.009 55.947 99.006 55.937C98.667 53.586 98.159 51.256 97.482 48.965C97.477 48.949 97.473 48.935 97.468 48.921C97.361 48.565 97.252 48.211 97.14 47.858C97.125 47.812 97.109 47.765 97.095 47.718C96.99 47.399 96.884 47.082 96.774 46.764C96.743 46.679 96.713 46.593 96.683 46.506C96.586 46.231 96.486 45.957 96.384 45.683C96.335 45.552 96.285 45.422 96.234 45.292C96.148 45.065 96.059 44.838 95.969 44.614C95.897 44.434 95.825 44.257 95.751 44.08C95.679 43.904 95.605 43.73 95.531 43.554C95.434 43.33 95.336 43.106 95.237 42.883C95.181 42.758 95.125 42.631 95.067 42.505C94.945 42.239 94.82 41.973 94.694 41.708C94.655 41.628 94.617 41.546 94.578 41.466C94.431 41.163 94.282 40.86 94.13 40.56C94.108 40.519 94.087 40.477 94.065 40.435C93.895 40.104 93.721 39.772 93.544 39.445C93.537 39.434 93.532 39.421 93.525 39.41C92.666 37.83 91.723 36.302 90.703 34.832L68.942 56.594C69.437 58.053 69.759 59.555 69.916 61.071H70.032H99.476C99.469 60.922 99.465 60.776 99.458 60.631Z" fill="white"/>
<path opacity="0.75" d="M70.03 63.0689C70.03 63.4029 69.999 63.7349 69.982 64.0689C69.966 64.4029 69.96 64.7369 69.927 65.0689C69.546 68.9089 68.064 72.6589 65.481 75.8089C65.271 76.0649 65.034 76.3049 64.809 76.5519C64.585 76.7989 64.377 77.0559 64.138 77.2939L84.989 98.1439C85.226 97.9069 85.449 97.6619 85.68 97.4209C85.911 97.1799 86.146 96.9419 86.371 96.6979C87.914 95.0269 89.324 93.2789 90.595 91.4619C90.646 91.3899 90.694 91.3189 90.743 91.2479C90.898 91.0249 91.049 90.7999 91.201 90.5749C91.334 90.3739 91.467 90.1729 91.596 89.9699C91.66 89.8729 91.724 89.7719 91.786 89.6749C96.568 82.1659 99.127 73.6539 99.471 65.0679C99.484 64.7349 99.491 64.4009 99.498 64.0679C99.505 63.7349 99.515 63.4019 99.515 63.0679H70.03V63.0689Z" fill="white"/>
<path d="M108.276 4.70592C102.881 -0.689082 94.134 -0.689082 88.74 4.70592C84.436 9.00892 83.576 15.4419 86.139 20.6079L56.048 50.6999C50.882 48.1379 44.449 48.9969 40.145 53.2999C34.75 58.6949 34.751 67.4419 40.145 72.8369C45.541 78.2319 54.288 78.2299 59.683 72.8359C63.986 68.5329 64.845 62.0999 62.282 56.9329L92.373 26.8419C97.54 29.4039 103.972 28.5449 108.275 24.2409C113.67 18.8489 113.67 10.1009 108.276 4.70592Z" fill="white"/>
<path d="M236.877 108.439V92.0869H239.746V108.439H236.877Z" fill="white"/>
<path d="M261.612 108.439L253.08 96.7439V108.439H250.211V92.0869H253.153L261.514 103.413V92.0869H264.381V108.439H261.612Z" fill="white"/>
<path d="M274.848 108.439V92.0869H277.717V108.439H274.848Z" fill="white"/>
<path d="M292.082 108.439V94.6119H287.129V92.0869H299.902V94.6119H294.951V108.439H292.082Z" fill="white"/>
<path d="M309.314 108.439V92.0869H312.183V108.439H309.314Z" fill="white"/>
<path d="M334.123 108.439L332.92 105.276H325.419L324.217 108.439H320.956L327.38 92.0869H330.958L337.381 108.439H334.123ZM329.171 94.9549L326.228 102.751H332.112L329.171 94.9549Z" fill="white"/>
<path d="M348.437 108.439V94.6119H343.484V92.0869H356.258V94.6119H351.306V108.439H348.437Z" fill="white"/>
<path d="M365.67 108.439V92.0869H368.539V108.439H365.67Z" fill="white"/>
<path d="M383.738 108.439L377.313 92.0869H380.574L385.527 105.301L390.48 92.0869H393.739L387.317 108.439H383.738Z" fill="white"/>
<path d="M402.489 108.439V92.0869H413.692V94.6119H405.357V98.8279H413.52V101.353H405.357V105.913H413.692V108.439H402.489Z" fill="white"/>
<path d="M114.689 52.3891C114.689 37.6061 125.5 27.0151 140.357 27.0151C155.139 27.0151 165.951 37.6061 165.951 52.3891C165.951 67.1711 155.14 77.7641 140.357 77.7641C125.501 77.7641 114.689 67.1721 114.689 52.3891ZM155.214 52.3891C155.214 43.1951 149.404 36.2821 140.358 36.2821C131.237 36.2821 125.427 43.1951 125.427 52.3891C125.427 61.5081 131.237 68.4961 140.358 68.4961C149.404 68.4961 155.214 61.5091 155.214 52.3891Z" fill="white"/>
<path d="M171.462 76.8802V27.8242H194.41C205.073 27.8242 210.884 35.0312 210.884 43.6362C210.884 52.1672 204.999 59.3762 194.41 59.3762H181.906V76.8802H171.462ZM200.22 43.6372C200.22 39.5182 197.058 37.0182 192.938 37.0182H181.907V50.1832H192.938C197.058 50.1822 200.22 47.6822 200.22 43.6372Z" fill="white"/>
<path d="M215.587 76.8802V27.8242H250.302V37.0172H226.032V47.3142H249.788V56.5082H226.032V67.6872H250.302V76.8812L215.587 76.8802Z" fill="white"/>
<path d="M290.454 76.8802L267.068 44.8872V76.8802H256.622V27.8242H267.361L290.087 58.6412V27.8242H300.531V76.8802H290.454Z" fill="white"/>
<path d="M344.565 76.8802L341.475 68.5692H320.442L317.353 76.8802H305.511L324.413 27.8242H337.507L356.406 76.8802H344.565ZM330.958 38.2682L323.31 59.3762H338.609L330.958 38.2682Z" fill="white"/>
<path d="M359.123 76.8802V27.8242H382.07C392.733 27.8242 398.544 35.0312 398.544 43.6362C398.544 52.1672 392.658 59.3762 382.07 59.3762H369.566V76.8802H359.123ZM387.88 43.6372C387.88 39.5182 384.718 37.0182 380.598 37.0182H369.566V50.1832H380.598C384.718 50.1822 387.88 47.6822 387.88 43.6372Z" fill="white"/>
<path d="M403.247 76.8802V27.8242H413.692V76.8802H403.247Z" fill="white"/>
</svg>
