<svg fill="none" height="113" viewBox="0 0 414 113" width="414" xmlns="http://www.w3.org/2000/svg"><path d="m29.909 65.0688h-.113-29.44401c.005.144.008998.289.016998.433.012.278.032.5551.049.8331.008.119.012999.2379.021999.3559.023.322.051002.642.080002.962.007.073.013.145.02.215.034.356.072998.712.114998 1.065.002.035.006002.069.011002.103.046.382.095001.764.151001 1.144 0 .004.000998.01.002998.014.339002 2.356.848002 4.69 1.527002 6.984.003.01.007.019.009.029.106.361.218.72.333 1.077.007.021.014.042.02.063s.013.0421.02.0631c.105.323.215.645.325.968.029.081.056.1629.086.2439.099.279.2.558.304.837.048.126.096.2511.143.3781.09.231.179.4599.27.6909.069.173.141.346.213.519.074.18.15.3591.226.5401.094.22.192.4389.289.6579.058.131.117.261.175.391.12.263.244.5261.368.7871.041.084.08.168.122.252.145.301.293.599.443.895.025.046.047.0909.07.1369.169.328.341.6561.518.9811.008.014.016.0279.023.0439.037.068.078.1331.115.2001l25.24301-15.207.093-.056c-.996-2.099-1.616-4.3311-1.846-6.6001z" fill="#93d500"/><path d="m1.74799 78.6231.00899.026.953-.3z" fill="#93d500"/><path d="m37.173 78.6377-.071.071-20.819 20.82c.107.1.213.201.323.298.194.1763.392.3513.589.5233.102.091.202.181.304.269.236.204.474.403.711.602.065.054.128.107.192.16.267.221.539.438.812.654.035.027.07.055.105.083.295.232.593.458.894.686.013.008.024.016.034.025 1.254.937 2.554 1.815 3.895 2.633.046.029.092.056.139.085.255.153.51.304.767.453.157.09.314.179.471.268.148.086.296.168.446.251.27.148.542.295.814.439.037.02.075.04.113.06.757.396 1.527.764 2.303 1.118l.739-1.794 10.471-25.4293.039-.094c-1.144-.612-2.24-1.337-3.271-2.181z" fill="#4d5a31"/><path d="m35.005 76.5639c-.225-.25-.439-.506-.649-.765-.186-.23-.366-.462-.54-.697-.199-.27-.394-.541-.578-.818-.186-.278-.368-.558-.54-.843l-25.275 15.226c.388.645.79301 1.273 1.20601 1.894.014.021.02699.044.04099.065.005.008.01001.015.01501.023.014.02.02599.042.03999.063.001.002.003.004.004.006.033.05.06701.098.10101.148.002.003.00399.006.00599.009l.003.004c.439.649.89 1.288 1.355 1.91.01.013.021.027.031.04l.03.039c.202.268.405.535.614.8.027.035.054.069.083.103.214.274.432.544.654.812.052.063.106.127.158.191.2.239.4.477.604.713.087.101.178.202.266.302.174.198.346.395.524.59.097.107.198.215.297.322.045.049.089.097.135.146.13.14.259.28.39.419.052.055.107.109.16.164.23.24.462.48.699.716l20.85-20.85c-.239-.239-.463-.485-.684-.732z" fill="#6ba43a"/><path d="m62.642 78.627c-.229.185-.461.366-.697.54l.052.087 15.202 25.235c.704-.46 1.4-.934 2.08-1.432 1.471-1.085 2.895-2.261 4.267-3.527l-20.821-20.821z" fill="#4d5a31"/><g fill="#93d500"><path d="m75.278 105.691c.011-.006.023-.013.034-.019l-.001-.001c-.011.006-.022.013-.033.02z"/><path d="m75.264 105.7v-.001h-.001z"/><path d="m75.311 105.671.001.001c.066-.037.133-.072.199-.111l-.004-.007c-.066.039-.131.078-.196.117z"/><path d="m75.269 105.695.009-.004v-.001z"/><path d="m75.263 105.699h.001l-.037-.063z"/><path d="m75.278 105.691c.012-.006.023-.012.034-.018-.011.005-.023.011-.034.018z"/><path d="m75.25 105.707.009-.005z"/><path d="m75.263 105.699-.004.003.005-.002z"/><path d="m75.269 105.695c-.002.001-.004.002-.006.003.005-.003.01-.005.015-.008v-.001c-.003.003-.006.005-.009.006z"/><path d="m75.312 105.672c.066-.039.133-.072.198-.112-.065.04-.132.075-.198.112z"/><path d="m75.511 105.56-.004-.006h-.001z"/><path d="m75.242 105.712.001-.001h.001z"/><path d="m75.25 105.707-.006.004z"/><path d="m74.99 104.696-.516-.856-14.19-23.5548c-.287.173-.581.329-.874.487-.296.159-.594.308-.896.451-2.726 1.293-5.677 1.9529-8.632 1.9529-1.936 0-3.871-.2799-5.742-.8379-.319-.095-.63-.2201-.945-.3321-.315-.111-.634-.2069-.944-.3349l-10.464 25.4118-.41.996-.351.853-.002.004c.027.011.055.02.082.031.029.012.057.021.086.033.001 0 .003.001.003.001.007.003.014.005.02.008.247.101.496.188.744.285.311.121.622.244.934.358.159.058.317.126.476.182 3.278 1.158 6.671 1.968 10.12 2.422.135.016.269.035.404.054.141.016.283.03.424.046.266.03.531.061.798.087.066.005.132.011.198.017.327.031.654.059.979.082.111.008.223.013.333.021.287.019.572.037.858.05.175.01.35.015.526.021.227.008.453.017.682.024.327.008.657.011.986.012.078 0 .155.002.232.003 2.755 0 5.509-.229 8.233-.686.046-.007.091-.015.138-.021.288-.05.576-.104.864-.157.164-.032.329-.063.491-.095.168-.035.337-.07.505-.106.281-.059.561-.12.842-.185.05-.011.101-.021.152-.035 4.141-.965 8.14-2.459 11.897-4.436l.001-.001c.246-.13.486-.278.731-.411.292-.16.582-.325.872-.491.201-.115.404-.221.603-.34l.001-.001c.002-.001.004-.003.006-.004.003-.002.007-.003.01-.005.002-.001.003-.002.004-.003.002-.001.004-.002.006-.003.003-.002.006-.003.009-.005.011-.007.022-.013.033-.02.065-.039.13-.078.195-.117z"/><path d="m37.185 47.5119c.23-.186.462-.366.697-.54l-.052-.087-15.201-25.235c-.706.461-1.404.936-2.085 1.436-1.47 1.082-2.893 2.257-4.262 3.522l20.821 20.821z"/></g><path d="m14.838 27.9941c-.237.237-.461.482-.692.722s-.466.479-.692.723c-1.538 1.665-2.944 3.409-4.21201 5.22-.061.085-.122.174-.182.261-.143.208-.284.416-.423.625-.145.217-.28901.437-.42901.656-.053.08-.105.161-.156.241-4.789 7.513-7.354994 16.034-7.699994 24.627-.013.333-.02.667-.027 1s-.017003.667-.017003 1h29.488017c0-.334.031-.666.048-1s.022-.668.055-1c.381-3.84 1.863-7.589 4.447-10.739.21-.256.447-.496.672-.743.224-.247.432-.504.671-.742z" fill="#4d5a31"/><path d="m75.681 20.6748c-.04-.025-.082-.049-.122-.073-.259-.159-.521-.312-.783-.465-.152-.088-.304-.173-.457-.26-.154-.086-.306-.172-.461-.256-.266-.146-.533-.29-.801-.432-.042-.021-.083-.044-.126-.066-1.729-.904-3.505-1.7-5.318-2.391-.046-.019-.094-.037-.141-.054-.395-.148-.791-.295-1.19-.433-3.221-1.125-6.552-1.914-9.936-2.358-.138-.019-.277-.038-.415-.056-.139-.017-.277-.031-.415-.046-.267-.031-.533-.061-.801-.087-.074-.007-.149-.012-.224-.02-.317-.029-.636-.057-.953-.08-.123-.009-.248-.016-.371-.023-.272-.018-.547-.037-.819-.049-.146-.008-.29-.012-.434-.017l-.001 29.444v.115c1.517.157 3.02.48 4.478.975l21.754-21.754c-.807-.56-1.624-1.104-2.464-1.614z" fill="#4d5a31"/><path d="m24.837 21.4409-.516-.8559z" fill="#6ba43a"/><path d="m24.318 20.5791.003.006z" fill="#6ba43a"/><path d="m48.914 13.4848c-.333.007-.667.008-1 .021-2.086.084-4.168.297-6.233.643-.045.008-.09.015-.136.023-.29.05-.577.103-.865.157-.163.031-.327.0611-.49.0941-.17.034-.339.069-.508.106-.28.058-.56.1189-.84.1839-.051.011-.101.023-.153.034-4.141.966-8.142 2.461-11.898 4.438-.245.13-.485.277-.729.411-.292.16-.582.3251-.872.4911-.215.124-.434.238-.648.366-.002.001-.005.0029-.007.0039h-.001c-.015.009-.03.017-.045.026-.056.034-.114.062-.17.096l.003.005.516.857 14.705 24.412c.287-.173.581-.33.874-.487.295-.159.594-.308.895-.451 2.1-1 4.332-1.62 6.601-1.85.333-.034.666-.062 1-.079.333-.017.666-.034 1-.034l.001-29.487c-.334 0-.667.014-1 .02z" fill="#6ba43a"/><path d="m99.458 60.631c-.014-.265-.03-.529-.048-.795-.008-.132-.015-.263-.026-.397-.022-.311-.048-.623-.077-.934-.006-.081-.014-.161-.021-.242-.034-.348-.071-.696-.111-1.043-.004-.028-.007-.056-.01-.084-.002-.013-.003-.027-.005-.04-.046-.375-.096-.75-.149-1.124-.001-.011-.002-.025-.005-.035-.339-2.351-.847-4.681-1.524-6.972-.005-.016-.009-.03-.014-.044-.107-.356-.216-.71-.328-1.063-.015-.046-.031-.093-.045-.14-.105-.319-.211-.636-.321-.954-.031-.085-.061-.171-.091-.258-.097-.275-.197-.549-.299-.823-.049-.131-.099-.261-.15-.391-.086-.227-.175-.454-.265-.678-.072-.18-.144-.357-.218-.534-.072-.176-.146-.35-.22-.526-.097-.224-.195-.448-.294-.671-.056-.125-.112-.252-.17-.378-.122-.266-.247-.532-.373-.797-.039-.08-.077-.162-.116-.242-.147-.303-.296-.606-.448-.906-.022-.041-.043-.083-.065-.125-.17-.331-.344-.663-.521-.99-.007-.011-.012-.024-.019-.035-.859-1.58-1.802-3.108-2.822-4.578l-21.761 21.762c.495 1.459.817 2.961.974 4.477h.116 29.444c-.007-.149-.011-.295-.018-.44z" fill="#4d5a31"/><path d="m70.03 63.0689c0 .334-.031.666-.048 1-.016.334-.022.668-.055 1-.381 3.84-1.863 7.59-4.446 10.74-.21.256-.447.496-.672.743-.224.247-.432.504-.671.742l20.851 20.85c.237-.237.46-.482.691-.723s.466-.479.691-.723c1.543-1.671 2.953-3.419 4.224-5.236.051-.072.099-.143.148-.214.155-.223.306-.448.458-.673.133-.201.266-.402.395-.605.064-.097.128-.198.19-.295 4.782-7.509 7.341-16.021 7.685-24.607.013-.333.02-.667.027-1s.017-.666.017-1h-29.485z" fill="#6ba43a"/><path d="m108.276 4.70592c-5.395-5.395002-14.142-5.395002-19.536 0-4.304 4.303-5.164 10.73598-2.601 15.90198l-30.091 30.092c-5.166-2.562-11.599-1.703-15.903 2.6-5.395 5.395-5.394 14.142 0 19.537 5.396 5.395 14.143 5.393 19.538-.001 4.303-4.303 5.162-10.736 2.599-15.903l30.091-30.091c5.167 2.562 11.599 1.703 15.902-2.601 5.395-5.392 5.395-14.14.001-19.53498z" fill="#424143"/><path d="m236.877 108.439v-16.3521h2.869v16.3521z" fill="#6ba43a"/><path d="m261.612 108.439-8.532-11.6951v11.6951h-2.869v-16.3521h2.942l8.361 11.3261v-11.3261h2.867v16.3521z" fill="#6ba43a"/><path d="m274.848 108.439v-16.3521h2.869v16.3521z" fill="#6ba43a"/><path d="m292.082 108.439v-13.8271h-4.953v-2.525h12.773v2.525h-4.951v13.8271z" fill="#6ba43a"/><path d="m309.314 108.439v-16.3521h2.869v16.3521z" fill="#6ba43a"/><path d="m334.123 108.439-1.203-3.163h-7.501l-1.202 3.163h-3.261l6.424-16.3521h3.578l6.423 16.3521zm-4.952-13.4841-2.943 7.7961h5.884z" fill="#6ba43a"/><path d="m348.437 108.439v-13.8271h-4.953v-2.525h12.774v2.525h-4.952v13.8271z" fill="#6ba43a"/><path d="m365.67 108.439v-16.3521h2.869v16.3521z" fill="#6ba43a"/><path d="m383.738 108.439-6.425-16.3521h3.261l4.953 13.2141 4.953-13.2141h3.259l-6.422 16.3521z" fill="#6ba43a"/><path d="m402.489 108.439v-16.3521h11.203v2.525h-8.335v4.216h8.163v2.5251h-8.163v4.56h8.335v2.526z" fill="#6ba43a"/><path d="m114.689 52.3891c0-14.783 10.811-25.374 25.668-25.374 14.782 0 25.594 10.591 25.594 25.374 0 14.782-10.811 25.375-25.594 25.375-14.856 0-25.668-10.592-25.668-25.375zm40.525 0c0-9.194-5.81-16.107-14.856-16.107-9.121 0-14.931 6.913-14.931 16.107 0 9.119 5.81 16.107 14.931 16.107 9.046 0 14.856-6.987 14.856-16.107z" fill="#424143"/><path d="m171.462 76.8802v-49.056h22.948c10.663 0 16.474 7.207 16.474 15.812 0 8.531-5.885 15.74-16.474 15.74h-12.504v17.504zm28.758-33.243c0-4.119-3.162-6.619-7.282-6.619h-11.031v13.165h11.031c4.12-.001 7.282-2.501 7.282-6.546z" fill="#424143"/><path d="m215.587 76.8802v-49.056h34.715v9.193h-24.27v10.297h23.756v9.194h-23.756v11.179h24.27v9.194z" fill="#424143"/><path d="m290.454 76.8802-23.386-31.993v31.993h-10.446v-49.056h10.739l22.726 30.817v-30.817h10.444v49.056z" fill="#424143"/><path d="m344.565 76.8802-3.09-8.311h-21.033l-3.089 8.311h-11.842l18.902-49.056h13.094l18.899 49.056zm-13.607-38.612-7.648 21.108h15.299z" fill="#424143"/><path d="m359.123 76.8802v-49.056h22.947c10.663 0 16.474 7.207 16.474 15.812 0 8.531-5.886 15.74-16.474 15.74h-12.504v17.504zm28.757-33.243c0-4.119-3.162-6.619-7.282-6.619h-11.032v13.165h11.032c4.12-.001 7.282-2.501 7.282-6.546z" fill="#424143"/><path d="m403.247 76.8802v-49.056h10.445v49.056z" fill="#424143"/></svg>